<svg id="anm" xmlns="http://www.w3.org/2000/svg" viewBox="0 0 710 258">
    <defs>
        <style>
            .cls-2{fill:#424242}.cls-3{fill:#2b2d41}.cls-4,.cls-7,.cls-8,.cls-9{fill:#fff}.cls-5{fill:#bfbfbf}.cls-6{fill:#706f6f}.cls-7{opacity:.5}.cls-8{opacity:.8}.cls-9{opacity:.1}
        </style>
    </defs>
    <title>
        Ativo 75
    </title>
    <g id="Camada_2" data-name="Camada 2">
        <g id="Camada_1-2" data-name="Camada 1">
            <path id="cinza5" d="M154.41,0H555.59a10,10,0,0,1,10,10V238.81a0,0,0,0,1,0,0H144.41a0,0,0,0,1,0,0V10A10,10,0,0,1,154.41,0Z" style="fill:#979797"/>
            <rect id="cinza9" class="cls-2" x="230" y="15.91" width="323" height="208"/>
            <rect id="corelos1" class="cls-3" x="230" y="41.91" width="323" height="156"/>
            <rect id="branco" class="cls-4" x="157" y="15.91" width="73" height="208"/>
            <path id="branco-2" data-name="branco" class="cls-4" d="M387.07,158.4l-.07-4c.64,0,1.27,0,1.89-.07l.27,4C388.47,158.36,387.77,158.39,387.07,158.4Z"/>
            <path id="branco-3" data-name="branco" class="cls-4" d="M383.92,158.32c-.71,0-1.4-.11-2.1-.19l.49-4c.62.08,1.24.14,1.87.18Z"/>
            <path id="branco-4" data-name="branco" class="cls-4" d="M392.29,158,391.7,154c.63-.1,1.24-.21,1.85-.33l.82,3.91C393.68,157.75,393,157.87,392.29,158Z"/>
            <path id="branco-5" data-name="branco" class="cls-4" d="M378.71,157.62q-1-.21-2-.48l1-3.87c.6.16,1.21.3,1.83.43Z"/>
            <path id="branco-6" data-name="branco" class="cls-4" d="M397.42,156.83,396.3,153c.6-.18,1.19-.37,1.78-.58l1.35,3.76C398.77,156.42,398.1,156.64,397.42,156.83Z"/>
            <path id="branco-7" data-name="branco" class="cls-4" d="M373.65,156.21c-.66-.23-1.32-.49-2-.75l1.53-3.7c.58.24,1.17.47,1.77.68Z"/>
            <path id="branco-8" data-name="branco" class="cls-4" d="M402.34,155l-1.64-3.64c.57-.26,1.14-.53,1.69-.82l1.85,3.55C403.61,154.41,403,154.72,402.34,155Z"/>
            <path id="branco-9" data-name="branco" class="cls-4" d="M368.83,154.12c-.63-.32-1.24-.66-1.84-1l2-3.45c.54.32,1.09.63,1.66.92Z"/>
            <path id="branco-10" data-name="branco" class="cls-4" d="M407,152.52l-2.13-3.39c.53-.33,1.06-.68,1.57-1l2.31,3.26C408.15,151.76,407.56,152.15,407,152.52Z"/>
            <path id="branco-11" data-name="branco" class="cls-4" d="M364.33,151.39q-.85-.6-1.68-1.26l2.48-3.13c.49.38,1,.76,1.51,1.12Z"/>
            <path id="branco-12" data-name="branco" class="cls-4" d="M411.21,149.43l-2.57-3.07c.49-.4,1-.82,1.42-1.25l2.73,2.93C412.27,148.51,411.75,149,411.21,149.43Z"/>
            <path id="branco-13" data-name="branco" class="cls-4" d="M360.26,148.08c-.51-.48-1-1-1.5-1.48l2.88-2.77q.66.67,1.35,1.32Z"/>
            <path id="branco-14" data-name="branco" class="cls-4" d="M415,145.79l-3-2.69c.42-.46.83-.94,1.23-1.43l3.1,2.53C415.93,144.74,415.47,145.27,415,145.79Z"/>
            <path id="branco-15" data-name="branco" class="cls-4" d="M356.67,144.25c-.44-.54-.87-1.1-1.29-1.67l3.24-2.35c.37.5.75,1,1.15,1.49Z"/>
            <path id="branco-16" data-name="branco" class="cls-4" d="M418.26,141.67l-3.3-2.26c.36-.52.7-1,1-1.58l3.41,2.08C419,140.51,418.66,141.09,418.26,141.67Z"/>
            <path id="branco-17" data-name="branco" class="cls-4" d="M353.63,140c-.36-.59-.71-1.2-1-1.81l3.52-1.9c.3.55.61,1.09.93,1.63Z"/>
            <path id="branco-18" data-name="branco" class="cls-4" d="M420.93,137.15l-3.57-1.79c.28-.57.55-1.13.8-1.71l3.66,1.59C421.54,135.89,421.25,136.52,420.93,137.15Z"/>
            <path id="branco-19" data-name="branco" class="cls-4" d="M351.21,135.31c-.28-.64-.55-1.29-.79-1.94l3.75-1.4c.22.59.45,1.17.7,1.74Z"/>
            <path id="branco-20" data-name="branco" class="cls-4" d="M423,132.3,419.17,131c.21-.59.39-1.19.56-1.8l3.85,1.08C423.39,131,423.19,131.64,423,132.3Z"/>
            <path id="branco-21" data-name="branco" class="cls-4" d="M349.44,130.37c-.19-.67-.36-1.35-.52-2l3.91-.87c.14.61.29,1.22.46,1.82Z"/>
            <path id="branco-22" data-name="branco" class="cls-4" d="M424.31,127.22l-3.93-.75c.12-.62.22-1.24.3-1.87l4,.54C424.55,125.84,424.44,126.53,424.31,127.22Z"/>
            <path id="branco-23" data-name="branco" class="cls-4" d="M348.36,125.23c-.09-.69-.17-1.39-.23-2.09l4-.33c.05.63.12,1.25.21,1.87Z"/>
            <path id="branco-24" data-name="branco" class="cls-4" d="M424.94,122l-4-.22c0-.62.05-1.25.05-1.88v-.16h4v.12C425,120.61,425,121.31,424.94,122Z"/>
            <path id="branco-25" data-name="branco" class="cls-4" d="M349,120l-1,0c0-.71,0-1.38.05-2l4,.21c0,.6-.05,1.2-.05,1.81Z"/>
            <path id="branco-26" data-name="branco" class="cls-4" d="M420.88,116.94c-.06-.63-.13-1.26-.22-1.88l4-.55c.1.69.18,1.38.24,2.08Z"/>
            <path id="branco-27" data-name="branco" class="cls-4" d="M352.31,115.28l-4-.53c.1-.7.21-1.39.34-2.07l3.93.74Q352.43,114.35,352.31,115.28Z"/>
            <path id="branco-28" data-name="branco" class="cls-4" d="M420.16,112.29c-.14-.62-.3-1.23-.47-1.83l3.85-1.09c.19.67.36,1.35.52,2Z"/>
            <path id="branco-29" data-name="branco" class="cls-4" d="M353.25,110.67l-3.86-1.06c.19-.68.4-1.35.62-2l3.79,1.27C353.6,109.47,353.42,110.07,353.25,110.67Z"/>
            <path id="branco-30" data-name="branco" class="cls-4" d="M418.81,107.78c-.22-.59-.46-1.17-.71-1.74l3.66-1.61c.28.64.55,1.29.79,1.94Z"/>
            <path id="branco-31" data-name="branco" class="cls-4" d="M354.81,106.24l-3.67-1.59c.28-.65.58-1.28.89-1.91l3.58,1.78C355.33,105.09,355.06,105.66,354.81,106.24Z"/>
            <path id="branco-32" data-name="branco" class="cls-4" d="M416.86,103.5c-.3-.55-.61-1.09-.94-1.63l3.41-2.09c.36.6.71,1.2,1.05,1.82Z"/>
            <path id="branco-33" data-name="branco" class="cls-4" d="M357,102.05,353.55,100q.56-.9,1.14-1.77l3.31,2.25C357.64,101,357.3,101.51,357,102.05Z"/>
            <path id="branco-34" data-name="branco" class="cls-4" d="M414.34,99.53c-.37-.51-.76-1-1.15-1.49l3.09-2.54c.44.55.87,1.1,1.29,1.67Z"/>
            <path id="branco-35" data-name="branco" class="cls-4" d="M359.68,98.2l-3.1-2.52c.44-.54.89-1.08,1.36-1.59l3,2.68C360.49,97.23,360.08,97.71,359.68,98.2Z"/>
            <path id="branco-36" data-name="branco" class="cls-4" d="M411.3,95.93c-.43-.45-.88-.89-1.34-1.32l2.72-2.93q.78.72,1.5,1.47Z"/>
            <path id="branco-37" data-name="branco" class="cls-4" d="M362.89,94.75l-2.74-2.92c.51-.47,1-.94,1.57-1.39l2.58,3.06C363.82,93.9,363.35,94.32,362.89,94.75Z"/>
            <path id="branco-38" data-name="branco" class="cls-4" d="M407.81,92.78c-.49-.39-1-.77-1.51-1.13l2.3-3.27c.57.4,1.13.82,1.69,1.25Z"/>
            <path id="branco-39" data-name="branco" class="cls-4" d="M366.53,91.77l-2.31-3.26q.86-.62,1.74-1.17l2.14,3.38C367.57,91.06,367,91.41,366.53,91.77Z"/>
            <path id="branco-40" data-name="branco" class="cls-4" d="M403.92,90.12c-.54-.31-1.09-.62-1.65-.91l1.83-3.55c.63.32,1.24.66,1.85,1Z"/>
            <path id="branco-41" data-name="branco" class="cls-4" d="M370.54,89.31l-1.85-3.54q.93-.49,1.89-.93l1.65,3.65C371.66,88.75,371.1,89,370.54,89.31Z"/>
            <path id="branco-42" data-name="branco" class="cls-4" d="M399.7,88c-.57-.24-1.16-.46-1.76-.67l1.33-3.77c.66.23,1.32.48,2,.75Z"/>
            <path id="branco-43" data-name="branco" class="cls-4" d="M374.85,87.42l-1.35-3.76c.65-.24,1.32-.45,2-.66l1.15,3.84C376,87,375.44,87.21,374.85,87.42Z"/>
            <path id="branco-44" data-name="branco" class="cls-4" d="M395.24,86.53c-.6-.16-1.21-.3-1.83-.43l.8-3.92c.69.14,1.37.3,2,.47Z"/>
            <path id="branco-45" data-name="branco" class="cls-4" d="M379.37,86.14l-.82-3.91c.69-.14,1.37-.27,2.07-.38l.61,4C380.6,85.9,380,86,379.37,86.14Z"/>
            <path id="branco-46" data-name="branco" class="cls-4" d="M390.62,85.65c-.62-.07-1.25-.13-1.88-.17l.26-4c.7,0,1.4.11,2.09.19Z"/>
            <path id="branco-47" data-name="branco" class="cls-4" d="M384,85.49l-.29-4q1-.06,2.1-.09l.07,4C385.29,85.42,384.66,85.45,384,85.49Z"/>
            <rect id="cinza3" class="cls-5" x="183" y="33.5" width="36" height="3"/>
            <rect id="cinza3-2" data-name="cinza3" class="cls-5" x="183" y="49.4" width="36" height="3"/>
            <rect id="cinza3-3" data-name="cinza3" class="cls-5" x="183" y="65.3" width="36" height="3"/>
            <rect id="cinza3-4" data-name="cinza3" class="cls-5" x="183" y="81.2" width="36" height="3"/>
            <rect id="cinza3-5" data-name="cinza3" class="cls-5" x="183" y="97.1" width="36" height="3"/>
            <rect id="cinza3-6" data-name="cinza3" class="cls-5" x="183" y="113" width="36" height="3"/>
            <g id="cinza9-2" data-name="cinza9">
                <path class="cls-2" d="M708.51,258H1.49C.67,258,0,257.1,0,256s.67-2,1.49-2h707c.82,0,1.49.9,1.49,2S709.33,258,708.51,258Z"/>
            </g>
            <rect id="corelos2" class="cls-6" x="165.5" y="29.5" width="11" height="11"/>
            <rect id="corelos2-2" data-name="corelos2" class="cls-6" x="165.5" y="45.4" width="11" height="11"/>
            <rect id="corelos2-3" data-name="corelos2" class="cls-6" x="165.5" y="61.3" width="11" height="11"/>
            <rect id="corelos2-4" data-name="corelos2" class="cls-6" x="165.5" y="77.2" width="11" height="11"/>
            <rect id="corelos2-5" data-name="corelos2" class="cls-6" x="165.5" y="93.1" width="11" height="11"/>
            <rect id="corelos2-6" data-name="corelos2" class="cls-6" x="165.5" y="109" width="11" height="11"/>
            <rect id="branco-48" data-name="branco" class="cls-7" x="165" y="29" width="12" height="12"/>
            <rect id="branco-49" data-name="branco" class="cls-8" x="165" y="44.9" width="12" height="12"/>
            <rect id="branco-50" data-name="branco" class="cls-7" x="165" y="61" width="12" height="12"/>
            <rect id="branco-51" data-name="branco" class="cls-8" x="165" y="108.5" width="12" height="12"/>
            <rect id="branco-52" data-name="branco" class="cls-9" x="165" y="92.6" width="12" height="12"/>
            <rect id="branco-53" data-name="branco" class="cls-9" x="165" y="76.7" width="12" height="12"/>
            <path d="M81,239H629a0,0,0,0,1,0,0v6a10,10,0,0,1-10,10H91a10,10,0,0,1-10-10v-6A0,0,0,0,1,81,239Z" style="fill:#6f6f6f"/>
            <path id="cinza8" d="M318.06,238.81h73.88a0,0,0,0,1,0,0v0a8,8,0,0,1-8,8H326.06a8,8,0,0,1-8-8v0A0,0,0,0,1,318.06,238.81Z" style="fill:#595959"/>
            <circle class="cls-4" cx="386.5" cy="119.5" r="30.5"/>
            <rect class="cls-3" x="375" y="108" width="23" height="23"/>
            <g id="Giragira">
                <path class="cls-3" id="spinner" d="M417.74,108.88l5.86-1.38a39.11,39.11,0,0,0-30.5-26.43l-.66,6A33,33,0,0,1,417.74,108.88Z">
                    <animateTransform xmlns="http://www.w3.org/2000/svg" attributeName="transform" type="rotate" from="0 386 120" to="360 386 120" dur="1s" repeatCount="indefinite"/>
                </path>
                <path d="M417.74,108.88A33,33,0,1,1,386.5,86.5a33.22,33.22,0,0,1,5.94.54l.66-6a39,39,0,1,0,30.5,26.43Z" style="opacity:0;fill:#2b2d41"/>
            </g>
        </g>
    </g>
</svg>