<svg xmlns="http://www.w3.org/2000/svg" width="138" height="37.067" viewBox="0 0 138 37.067"><defs><style>.a{fill:#dadada;stroke:rgba(0,0,0,0);stroke-miterlimit:10;}</style></defs><path class="a" d="M-3305.152-1991.255a17.852,17.852,0,0,1-5.015-3.074,17.863,17.863,0,0,1-5.015,3.074,17.964,17.964,0,0,1-6.785,1.321,17.963,17.963,0,0,1-6.785-1.321,17.912,17.912,0,0,1-5.966-3.961,17.914,17.914,0,0,1-3.962-5.966,17.98,17.98,0,0,1-1.32-6.785,17.976,17.976,0,0,1,1.32-6.785,17.914,17.914,0,0,1,3.962-5.966,17.9,17.9,0,0,1,5.966-3.962,17.981,17.981,0,0,1,6.785-1.32,17.982,17.982,0,0,1,6.785,1.32,17.888,17.888,0,0,1,5.015,3.075,17.877,17.877,0,0,1,5.015-3.075,17.983,17.983,0,0,1,6.785-1.32,17.982,17.982,0,0,1,6.785,1.32,17.9,17.9,0,0,1,5.966,3.962,17.929,17.929,0,0,1,3.962,5.966,17.979,17.979,0,0,1,1.32,6.785,17.98,17.98,0,0,1-1.32,6.785,17.929,17.929,0,0,1-3.962,5.966,17.912,17.912,0,0,1-5.966,3.961,17.964,17.964,0,0,1-6.785,1.321A17.965,17.965,0,0,1-3305.152-1991.255Zm17.633-5.864a15.292,15.292,0,0,0,4.487-10.848,15.294,15.294,0,0,0-4.487-10.849,15.36,15.36,0,0,0-21.7,0l-11.8,11.8a1.346,1.346,0,0,1-1.9,0,1.344,1.344,0,0,1-.394-.952,1.344,1.344,0,0,1,.394-.952l4.856-4.855a7.009,7.009,0,0,0-8.852.859,6.974,6.974,0,0,0-2.047,4.948,6.976,6.976,0,0,0,2.047,4.949,7,7,0,0,0,9.9,0l11.8-11.8a9.636,9.636,0,0,1,3.206-2.129,9.658,9.658,0,0,1,3.646-.709,9.657,9.657,0,0,1,3.645.709,9.64,9.64,0,0,1,3.207,2.129,9.632,9.632,0,0,1,2.127,3.206,9.64,9.64,0,0,1,.71,3.646,9.639,9.639,0,0,1-.71,3.645,9.636,9.636,0,0,1-2.127,3.207,9.653,9.653,0,0,1-3.207,2.129,9.657,9.657,0,0,1-3.645.709,9.658,9.658,0,0,1-3.646-.709,9.625,9.625,0,0,1-2.189-1.243l-4.02,4.021A15.361,15.361,0,0,0-3287.519-1997.119Zm-45.3,0a15.358,15.358,0,0,0,21.7,0l11.8-11.8a1.346,1.346,0,0,1,1.9,0,1.342,1.342,0,0,1,.394.952,1.342,1.342,0,0,1-.394.952l-4.855,4.856a7.009,7.009,0,0,0,8.852-.859,6.976,6.976,0,0,0,2.047-4.949,6.974,6.974,0,0,0-2.047-4.948,7.005,7.005,0,0,0-9.9,0l-11.8,11.8a9.653,9.653,0,0,1-3.207,2.129,9.657,9.657,0,0,1-3.645.709,9.658,9.658,0,0,1-3.646-.709,9.649,9.649,0,0,1-3.206-2.129,9.639,9.639,0,0,1-2.128-3.207,9.657,9.657,0,0,1-.709-3.645,9.658,9.658,0,0,1,.709-3.646,9.635,9.635,0,0,1,2.128-3.206,9.636,9.636,0,0,1,3.206-2.129,9.658,9.658,0,0,1,3.646-.709,9.657,9.657,0,0,1,3.645.709,9.589,9.589,0,0,1,2.189,1.243l4.021-4.021a15.363,15.363,0,0,0-20.7.91,15.3,15.3,0,0,0-4.486,10.849A15.294,15.294,0,0,0-3332.815-1997.119Zm118.164-1.852a8.06,8.06,0,0,1-3.208-2.058,1.275,1.275,0,0,1-.349-.8,1.326,1.326,0,0,1,.558-1.046,1.432,1.432,0,0,1,.872-.314,1.287,1.287,0,0,1,1.012.489,5.353,5.353,0,0,0,2.215,1.5,8.528,8.528,0,0,0,3.053.524,6.5,6.5,0,0,0,3.662-.838,2.644,2.644,0,0,0,1.256-2.2,2.473,2.473,0,0,0-1.22-2.093,9.752,9.752,0,0,0-3.872-1.255,10.859,10.859,0,0,1-5.111-1.936,4.163,4.163,0,0,1-1.691-3.332,4.545,4.545,0,0,1,1.97-3.941,8.332,8.332,0,0,1,4.937-1.4,9.538,9.538,0,0,1,4.011.785,7.064,7.064,0,0,1,2.757,2.181,1.59,1.59,0,0,1,.279.8,1.066,1.066,0,0,1-.559.941,1.114,1.114,0,0,1-.662.175,1.6,1.6,0,0,1-1.221-.523,5.889,5.889,0,0,0-4.675-1.953,5.368,5.368,0,0,0-3.07.785,2.321,2.321,0,0,0-1.15,1.971,2.325,2.325,0,0,0,1.081,2.005,10.05,10.05,0,0,0,3.838,1.2,10.876,10.876,0,0,1,5.336,2.041,4.482,4.482,0,0,1,1.605,3.505,4.59,4.59,0,0,1-.959,2.86,6.223,6.223,0,0,1-2.669,1.953,10.172,10.172,0,0,1-3.872.7A11.93,11.93,0,0,1-3214.652-1998.971Zm-22.412-.524a9.041,9.041,0,0,1-3.47-3.47,9.9,9.9,0,0,1-1.256-4.971,9.992,9.992,0,0,1,1.256-4.988,9.009,9.009,0,0,1,3.47-3.488,9.9,9.9,0,0,1,4.971-1.256,9.808,9.808,0,0,1,4.954,1.256,9.177,9.177,0,0,1,3.471,3.488,9.885,9.885,0,0,1,1.272,4.988,9.914,9.914,0,0,1-1.255,4.971,9.049,9.049,0,0,1-3.471,3.47,9.894,9.894,0,0,1-4.971,1.256A9.9,9.9,0,0,1-3237.063-1999.495Zm1.36-14.79a6.751,6.751,0,0,0-2.545,2.6,7.559,7.559,0,0,0-.925,3.75,7.488,7.488,0,0,0,.925,3.715,6.745,6.745,0,0,0,2.545,2.6,7.058,7.058,0,0,0,3.611.942,7.03,7.03,0,0,0,3.628-.942,6.661,6.661,0,0,0,2.512-2.6,7.619,7.619,0,0,0,.907-3.715,7.692,7.692,0,0,0-.907-3.75,6.667,6.667,0,0,0-2.512-2.6,7.03,7.03,0,0,0-3.628-.942A7.058,7.058,0,0,0-3235.7-2014.285Zm-31.62,14.808a8.834,8.834,0,0,1-3.436-3.453,10.083,10.083,0,0,1-1.238-5.006,10.634,10.634,0,0,1,1.168-5.041,8.612,8.612,0,0,1,3.244-3.453,9.05,9.05,0,0,1,4.727-1.238,8.645,8.645,0,0,1,4.569,1.2,8.21,8.21,0,0,1,3.087,3.331,10.415,10.415,0,0,1,1.1,4.848,1.168,1.168,0,0,1-.348.889,1.264,1.264,0,0,1-.907.332h-14.093a6.949,6.949,0,0,0,2.233,4.64,6.982,6.982,0,0,0,4.883,1.778,7.765,7.765,0,0,0,2.529-.436,6.145,6.145,0,0,0,2.041-1.1,1.526,1.526,0,0,1,.941-.349,1.3,1.3,0,0,1,.768.279,1.261,1.261,0,0,1,.454.942,1.057,1.057,0,0,1-.383.8,9.486,9.486,0,0,1-2.931,1.623,10.012,10.012,0,0,1-3.418.645A9.985,9.985,0,0,1-3267.323-1999.477Zm.07-14.145a7.1,7.1,0,0,0-2.129,4.325h12.768a6.824,6.824,0,0,0-1.954-4.325,5.876,5.876,0,0,0-4.291-1.639A6.162,6.162,0,0,0-3267.253-2013.622Zm21.8,15.209a4.231,4.231,0,0,1-3.471-1.692,6.77,6.77,0,0,1-1.343-4.343v-19.884a1.264,1.264,0,0,1,.383-.958,1.315,1.315,0,0,1,.942-.366,1.3,1.3,0,0,1,.959.366,1.3,1.3,0,0,1,.366.958v19.884a4.413,4.413,0,0,0,.61,2.442,1.8,1.8,0,0,0,1.552.941h.872a1.049,1.049,0,0,1,.837.366,1.423,1.423,0,0,1,.313.959,1.192,1.192,0,0,1-.436.959,1.7,1.7,0,0,1-1.133.366Z" transform="translate(3340.5 2026.5)"/></svg>