<?xml version="1.0" encoding="utf-8"?>
<!-- Generator: Adobe Illustrator 23.0.6, SVG Export Plug-In . SVG Version: 6.00 Build 0)  -->
<svg version="1.1" id="Camada_1" xmlns="http://www.w3.org/2000/svg" xmlns:xlink="http://www.w3.org/1999/xlink" x="0px" y="0px"
	 viewBox="0 0 300 300" enable-background="new 0 0 300 300" xml:space="preserve">
<g>
	<path fill="#2DCCD3" d="M292.4,183.9c4.4-10.8,6.6-22.2,6.6-33.9c0-11.7-2.2-23.1-6.6-33.9c-4.5-11.2-11.2-21.2-19.8-29.8
		c-8.6-8.6-18.6-15.3-29.8-19.8c-10.8-4.4-22.2-6.6-33.9-6.6c-11.7,0-23.1,2.2-33.9,6.6c-9.2,3.7-17.6,8.9-25,15.4
		c-7.5-6.5-15.9-11.6-25-15.4c-10.8-4.4-22.2-6.6-33.9-6.6c-11.7,0-23.1,2.2-33.9,6.6C46,71.1,36,77.7,27.4,86.3
		s-15.3,18.6-19.8,29.8C3.2,126.9,1,138.3,1,150c0,11.7,2.2,23.1,6.6,33.9c4.5,11.2,11.2,21.2,19.8,29.8
		c8.6,8.6,18.6,15.3,29.8,19.8c10.8,4.4,22.2,6.6,33.9,6.6c11.7,0,23.1-2.2,33.9-6.6c9.2-3.7,17.6-8.9,25-15.4
		c7.5,6.5,15.9,11.6,25,15.4c10.8,4.4,22.2,6.6,33.9,6.6c11.7,0,23.1-2.2,33.9-6.6c11.2-4.5,21.2-11.2,29.8-19.8
		C281.2,205.1,287.9,195.1,292.4,183.9z M36.9,204.2C7,174.3,7,125.7,36.9,95.8c28.3-28.3,73.3-29.8,103.4-4.5l-20.1,20.1
		c-3.4-2.5-7-4.6-10.9-6.2c-5.8-2.4-11.9-3.5-18.2-3.5c-6.3,0-12.4,1.2-18.2,3.5c-6,2.4-11.4,6-16,10.6s-8.2,10-10.6,16
		c-2.4,5.8-3.5,11.9-3.5,18.2c0,6.3,1.2,12.4,3.5,18.2c2.4,6,6,11.4,10.6,16c4.6,4.6,10,8.2,16,10.6c5.8,2.4,11.9,3.5,18.2,3.5
		c6.3,0,12.4-1.2,18.2-3.5c6-2.4,11.4-6,16-10.6l58.9-58.9c13.6-13.6,35.8-13.6,49.4,0c13.6,13.6,13.6,35.8,0,49.4
		c-12,12-30.6,13.4-44.2,4.3l24.3-24.3c2.6-2.6,2.6-6.9,0-9.5c-2.6-2.6-6.9-2.6-9.5,0l-58.9,58.9C115.4,234.1,66.8,234.1,36.9,204.2
		z M159.7,208.7l20.1-20.1c3.4,2.5,7,4.6,10.9,6.2c5.8,2.4,11.9,3.5,18.2,3.5c6.3,0,12.4-1.2,18.2-3.5c6-2.4,11.4-6,16-10.6
		c4.6-4.6,8.2-10,10.6-16c2.4-5.8,3.5-11.9,3.5-18.2c0-6.3-1.2-12.4-3.5-18.2c-2.4-6-6-11.4-10.6-16c-4.6-4.6-10-8.2-16-10.6
		c-5.8-2.4-11.9-3.5-18.2-3.5c-6.3,0-12.4,1.2-18.2,3.5c-6,2.4-11.4,6-16,10.6l-58.9,58.9c-13.6,13.6-35.8,13.6-49.4,0
		s-13.6-35.8,0-49.4c12-12,30.6-13.4,44.2-4.3l-24.3,24.3c-2.6,2.6-2.6,6.9,0,9.5c2.6,2.6,6.9,2.6,9.5,0l58.9-58.9
		c29.9-29.9,78.5-29.9,108.4,0c29.9,29.9,29.9,78.5,0,108.4C234.8,232.5,189.8,234,159.7,208.7z"/>
	<g>
		<defs>
			<path id="SVGID_1_" d="M292.4,183.9c4.4-10.8,6.6-22.2,6.6-33.9c0-11.7-2.2-23.1-6.6-33.9c-4.5-11.2-11.2-21.2-19.8-29.8
				c-8.6-8.6-18.6-15.3-29.8-19.8c-10.8-4.4-22.2-6.6-33.9-6.6c-11.7,0-23.1,2.2-33.9,6.6c-9.2,3.7-17.6,8.9-25,15.4
				c-7.5-6.5-15.9-11.6-25-15.4c-10.8-4.4-22.2-6.6-33.9-6.6c-11.7,0-23.1,2.2-33.9,6.6C46,71.1,36,77.7,27.4,86.3
				s-15.3,18.6-19.8,29.8C3.2,126.9,1,138.3,1,150c0,11.7,2.2,23.1,6.6,33.9c4.5,11.2,11.2,21.2,19.8,29.8
				c8.6,8.6,18.6,15.3,29.8,19.8c10.8,4.4,22.2,6.6,33.9,6.6c11.7,0,23.1-2.2,33.9-6.6c9.2-3.7,17.6-8.9,25-15.4
				c7.5,6.5,15.9,11.6,25,15.4c10.8,4.4,22.2,6.6,33.9,6.6c11.7,0,23.1-2.2,33.9-6.6c11.2-4.5,21.2-11.2,29.8-19.8
				C281.2,205.1,287.9,195.1,292.4,183.9z M36.9,204.2C7,174.3,7,125.7,36.9,95.8c28.3-28.3,73.3-29.8,103.4-4.5l-20.1,20.1
				c-3.4-2.5-7-4.6-10.9-6.2c-5.8-2.4-11.9-3.5-18.2-3.5c-6.3,0-12.4,1.2-18.2,3.5c-6,2.4-11.4,6-16,10.6s-8.2,10-10.6,16
				c-2.4,5.8-3.5,11.9-3.5,18.2c0,6.3,1.2,12.4,3.5,18.2c2.4,6,6,11.4,10.6,16c4.6,4.6,10,8.2,16,10.6c5.8,2.4,11.9,3.5,18.2,3.5
				c6.3,0,12.4-1.2,18.2-3.5c6-2.4,11.4-6,16-10.6l58.9-58.9c13.6-13.6,35.8-13.6,49.4,0c13.6,13.6,13.6,35.8,0,49.4
				c-12,12-30.6,13.4-44.2,4.3l24.3-24.3c2.6-2.6,2.6-6.9,0-9.5c-2.6-2.6-6.9-2.6-9.5,0l-58.9,58.9
				C115.4,234.1,66.8,234.1,36.9,204.2z M159.7,208.7l20.1-20.1c3.4,2.5,7,4.6,10.9,6.2c5.8,2.4,11.9,3.5,18.2,3.5
				c6.3,0,12.4-1.2,18.2-3.5c6-2.4,11.4-6,16-10.6c4.6-4.6,8.2-10,10.6-16c2.4-5.8,3.5-11.9,3.5-18.2c0-6.3-1.2-12.4-3.5-18.2
				c-2.4-6-6-11.4-10.6-16c-4.6-4.6-10-8.2-16-10.6c-5.8-2.4-11.9-3.5-18.2-3.5c-6.3,0-12.4,1.2-18.2,3.5c-6,2.4-11.4,6-16,10.6
				l-58.9,58.9c-13.6,13.6-35.8,13.6-49.4,0s-13.6-35.8,0-49.4c12-12,30.6-13.4,44.2-4.3l-24.3,24.3c-2.6,2.6-2.6,6.9,0,9.5
				c2.6,2.6,6.9,2.6,9.5,0l58.9-58.9c29.9-29.9,78.5-29.9,108.4,0c29.9,29.9,29.9,78.5,0,108.4C234.8,232.5,189.8,234,159.7,208.7z"
				/>
		</defs>
		<clipPath id="SVGID_2_">
			<use xlink:href="#SVGID_1_"  overflow="visible"/>
		</clipPath>
		
			<linearGradient id="SVGID_3_" gradientUnits="userSpaceOnUse" x1="-4279.8335" y1="1520.696" x2="-4279.8335" y2="1493.1384" gradientTransform="matrix(0.7071 -0.7071 0.7071 0.7071 2071.0078 -3990.0359)">
			<stop  offset="0" style="stop-color:#008C95"/>
			<stop  offset="1" style="stop-color:#3DDEED;stop-opacity:0"/>
		</linearGradient>
		<polygon clip-path="url(#SVGID_2_)" fill="url(#SVGID_3_)" points="152.8,78.8 87.2,144.4 67.7,124.9 133.3,59.3 		"/>
		
			<linearGradient id="SVGID_4_" gradientUnits="userSpaceOnUse" x1="-4290.5098" y1="1645.0413" x2="-4290.5098" y2="1617.4836" gradientTransform="matrix(0.7071 -0.7071 0.7071 0.7071 2071.0078 -3990.0359)">
			<stop  offset="0" style="stop-color:#3DDEED;stop-opacity:0"/>
			<stop  offset="1" style="stop-color:#008C95"/>
		</linearGradient>
		<polygon clip-path="url(#SVGID_2_)" fill="url(#SVGID_4_)" points="233.2,174.2 167.6,239.8 148.1,220.3 213.7,154.8 		"/>
	</g>
</g>
</svg>
